# xmcd
#
# Track frame offsets: 
#        150
#        13019
#        27883
#        43585
#        58927
#        83517
#        100467
#        116293
#        131381
#        147553
#        161297
#        173364
#        186090
#        205786
#        220614
#        237606
#
# Disc length: 3488 seconds
#
# Revision: 0
# Processed by: cddbd v1.5.2PL0 Copyright (c) Steve Scherf et al.
# Submitted via: ExactAudioCopyFreeDBPlugin 1.0
#
DISCID=d00d9e10
DTITLE=Dave Earl - Harmonica Blues
DYEAR=1900
DGENRE=Blues
TTITLE0=Checkin' Up On My Baby
TTITLE1=Aww Baby
TTITLE2=Your Funeral My Trial
TTITLE3=My Babe
TTITLE4=Hoodoo Man Blues
TTITLE5=Old Time Boogie
TTITLE6=King Bee
TTITLE7=Scratch My Back
TTITLE8=Rainin' In My Heart
TTITLE9=Mojo Man
TTITLE10=Temperature
TTITLE11=Harp Stompin'
TTITLE12=Tin Pan Alley
TTITLE13=Mother In Law Blues
TTITLE14=Can't Hold Out Much Longer
TTITLE15=Just Keep Lovin' Her
EXTD=
EXTT0=
EXTT1=
EXTT2=
EXTT3=
EXTT4=
EXTT5=
EXTT6=
EXTT7=
EXTT8=
EXTT9=
EXTT10=
EXTT11=
EXTT12=
EXTT13=
EXTT14=
EXTT15=
PLAYORDER=
